/* XPM */
static char *_748b1d0d82c4ea4f2857e957655de73QbAMdd2bk11KaIix[] = {
/* columns rows colors chars-per-pixel */
"64 64 17 1 ",
"  c None",
". c #57585B",
"X c #57595B",
"o c #56595C",
"O c #57595C",
"+ c #56595D",
"@ c #58585A",
"# c #58585B",
"$ c #0C7BBF",
"% c #0D7BBF",
"& c #0C7BC0",
"* c #0B7CC0",
"= c #0B7CC1",
"- c #0A7CC2",
"; c #0A7DC2",
": c #0A7DC3",
"> c #0C7CC0",
/* pixels */
"                                                                ",
"                                                                ",
"                                =                               ",
"                              ====                              ",
"                            ========                            ",
"                           ===========                          ",
"                         ==============                         ",
"                       ==================                       ",
"                     ======================                     ",
"                    =========================                   ",
"                  ============================                  ",
"                ================================                ",
"              ====================================              ",
"             ==================  ==================             ",
"           ==================      ==================           ",
"         ===================         ==================         ",
"         >=================           ===================       ",
"           $================            ==================      ",
"            =>================            ================      ",
"       O      >=================            ==============      ",
"       @.       &================            =============      ",
"       @@@.       $================            ===========      ",
"       @@@@@.      =>================            =========      ",
"       @@@@@@.       &=================          =========      ",
"       @@@@@@@@.       >================         =========      ",
"       @@@@@@@@@@.      ==================       =========      ",
"       @@@@@@@@@@@@.      >=================      ========      ",
"       @@@@@@@@@@@@@.       >=================      ======      ",
"       @@@@@@@@@@@@@@@.       >================       ====      ",
"       @@@@@@@@@@@@@@@@@O      ==================      ===      ",
"         @@@@@@@@@@@@@@@@@.      $=================      =      ",
"          @@@@@@@@@@@@@@@@@.       $=================           ",
"            @@@@@@@@@@@@@@@@@O      =>================          ",
"       @      @@@@@@@@@@@@@@@@@O      >=================        ",
"       @@       @@@@@@@@@@@@@@@@@       >=================      ",
"       @@@@      @@@@@@@@@@@@@@@@@O       ================      ",
"       @@@@@@      @@@@@@@@@@@@@@@@@O      =>=============      ",
"       @@@@@@@@      @@@@@@@@@@@@@@@@@@      >============      ",
"       @@@@@@@@        @@@@@@@@@@@@@@@@O       >==========      ",
"       @@@@@@@@@        @@@@@@@@@@@@@@@@@O      ==========      ",
"       @@@@@@@@           @@@@@@@@@@@@@@@@@.      >=======      ",
"       @@@@@@@@@            @@@@@@@@@@@@@@@@@       >=====      ",
"       @@@@@@@@@@@            @@@@@@@@@@@@@@@@O       >===      ",
"       @@@@@@@@@@@@            @@@@@@@@@@@@@@@@@O      =>=      ",
"       @@@@@@@@@@@@@@            @@@@@@@@@@@@@@@.@.      $      ",
"       @@@@@@@@@@@@@@@@            @@@@@@@@@@@@@@@@.            ",
"       @@@@@@@@@@@@@@@@@@            @@@@@@@@@@@@@@@@@          ",
"        @@@@@@@@@@@@@@@@@@           @@@@@@@@@@@@@@@@@@O        ",
"          @@@@@@@@@@@@@@@@@@        @@@@@@@@@@@@@@@@@@@         ",
"           @@@@@@@@@@@@@@@@@@@    @@@@@@@@@@@@@@@@@@@           ",
"             @@@@@@@@@@@@@@@@@@  @@@@@@@@@@@@@@@@@@             ",
"               @@@@@@@@@@@@@@@@@@@@@@@@@@@@@@@@@@               ",
"                 @@@@@@@@@@@@@@@@@@@@@@@@@@@@@@@                ",
"                  @@@@@@@@@@@@@@@@@@@@@@@@@@@@                  ",
"                    @@@@@@@@@@@@@@@@@@@@@@@@                    ",
"                      @@@@@@@@@@@@@@@@@@@@                      ",
"                        @@@@@@@@@@@@@@@@@                       ",
"                         @@@@@@@@@@@@@@                         ",
"                           @@@@@@@@@@                           ",
"                             @@@@@@@                            ",
"                              @@@@                              ",
"                                                                ",
"                                                                ",
"                                                                "
};
