/* XPM */
static char *_cc7653fc04d4d0ac423da44d9c3832dwV0E0FW5MgqBJ1mi[] = {
/* columns rows colors chars-per-pixel */
"128 128 3 1 ",
"  c None",
". c #58585A",
"X c #0B7CC1",
/* pixels */
"                                                                                                                                ",
"                                                                                                                                ",
"                                                                                                                                ",
"                                                                                                                                ",
"                                                                                                                                ",
"                                                               XXX                                                              ",
"                                                             XXXXXXX                                                            ",
"                                                           XXXXXXXXXX                                                           ",
"                                                         XXXXXXXXXXXXXX                                                         ",
"                                                        XXXXXXXXXXXXXXXXX                                                       ",
"                                                      XXXXXXXXXXXXXXXXXXXX                                                      ",
"                                                    XXXXXXXXXXXXXXXXXXXXXXXX                                                    ",
"                                                   XXXXXXXXXXXXXXXXXXXXXXXXXXX                                                  ",
"                                                 XXXXXXXXXXXXXXXXXXXXXXXXXXXXXXX                                                ",
"                                               XXXXXXXXXXXXXXXXXXXXXXXXXXXXXXXXXX                                               ",
"                                             XXXXXXXXXXXXXXXXXXXXXXXXXXXXXXXXXXXXXX                                             ",
"                                            XXXXXXXXXXXXXXXXXXXXXXXXXXXXXXXXXXXXXXXXX                                           ",
"                                          XXXXXXXXXXXXXXXXXXXXXXXXXXXXXXXXXXXXXXXXXXXXX                                         ",
"                                        XXXXXXXXXXXXXXXXXXXXXXXXXXXXXXXXXXXXXXXXXXXXXXXX                                        ",
"                                      XXXXXXXXXXXXXXXXXXXXXXXXXXXXXXXXXXXXXXXXXXXXXXXXXXXX                                      ",
"                                     XXXXXXXXXXXXXXXXXXXXXXXXXXXXXXXXXXXXXXXXXXXXXXXXXXXXXXX                                    ",
"                                   XXXXXXXXXXXXXXXXXXXXXXXXXXXXXXXXXXXXXXXXXXXXXXXXXXXXXXXXXX                                   ",
"                                 XXXXXXXXXXXXXXXXXXXXXXXXXXXXXXXXXXXXXXXXXXXXXXXXXXXXXXXXXXXXXX                                 ",
"                                XXXXXXXXXXXXXXXXXXXXXXXXXXXXXXXXXXXXXXXXXXXXXXXXXXXXXXXXXXXXXXXXX                               ",
"                              XXXXXXXXXXXXXXXXXXXXXXXXXXXXXXXXXXXXXXXXXXXXXXXXXXXXXXXXXXXXXXXXXXXXX                             ",
"                            XXXXXXXXXXXXXXXXXXXXXXXXXXXXXXXXXXXXXXXXXXXXXXXXXXXXXXXXXXXXXXXXXXXXXXXX                            ",
"                          XXXXXXXXXXXXXXXXXXXXXXXXXXXXXXXXXXXXX  XXXXXXXXXXXXXXXXXXXXXXXXXXXXXXXXXXXXX                          ",
"                         XXXXXXXXXXXXXXXXXXXXXXXXXXXXXXXXXXXX      XXXXXXXXXXXXXXXXXXXXXXXXXXXXXXXXXXXXX                        ",
"                       XXXXXXXXXXXXXXXXXXXXXXXXXXXXXXXXXXXXX         XXXXXXXXXXXXXXXXXXXXXXXXXXXXXXXXXXXXX                      ",
"                     XXXXXXXXXXXXXXXXXXXXXXXXXXXXXXXXXXXXX             XXXXXXXXXXXXXXXXXXXXXXXXXXXXXXXXXXXX                     ",
"                   XXXXXXXXXXXXXXXXXXXXXXXXXXXXXXXXXXXXX                XXXXXXXXXXXXXXXXXXXXXXXXXXXXXXXXXXXXX                   ",
"                 XXXXXXXXXXXXXXXXXXXXXXXXXXXXXXXXXXXXXX                   XXXXXXXXXXXXXXXXXXXXXXXXXXXXXXXXXXXXX                 ",
"                 XXXXXXXXXXXXXXXXXXXXXXXXXXXXXXXXXXXX                       XXXXXXXXXXXXXXXXXXXXXXXXXXXXXXXXXXXX                ",
"                   XXXXXXXXXXXXXXXXXXXXXXXXXXXXXXXXXX                         XXXXXXXXXXXXXXXXXXXXXXXXXXXXXXXXXXXX              ",
"                     XXXXXXXXXXXXXXXXXXXXXXXXXXXXXXXXXX                        XXXXXXXXXXXXXXXXXXXXXXXXXXXXXXXXXXXX             ",
"                      XXXXXXXXXXXXXXXXXXXXXXXXXXXXXXXXXXX                        XXXXXXXXXXXXXXXXXXXXXXXXXXXXXXXXXX             ",
"                        XXXXXXXXXXXXXXXXXXXXXXXXXXXXXXXXXXX                        XXXXXXXXXXXXXXXXXXXXXXXXXXXXXXXX             ",
"                          XXXXXXXXXXXXXXXXXXXXXXXXXXXXXXXXXXX                        XXXXXXXXXXXXXXXXXXXXXXXXXXXXXX             ",
"             .             XXXXXXXXXXXXXXXXXXXXXXXXXXXXXXXXXXX                        XXXXXXXXXXXXXXXXXXXXXXXXXXXXX             ",
"             ...             XXXXXXXXXXXXXXXXXXXXXXXXXXXXXXXXXXX                        XXXXXXXXXXXXXXXXXXXXXXXXXXX             ",
"             .....             XXXXXXXXXXXXXXXXXXXXXXXXXXXXXXXXXXX                        XXXXXXXXXXXXXXXXXXXXXXXXX             ",
"             ......              XXXXXXXXXXXXXXXXXXXXXXXXXXXXXXXXXXX                       XXXXXXXXXXXXXXXXXXXXXXXX             ",
"             ........             XXXXXXXXXXXXXXXXXXXXXXXXXXXXXXXXXXX                        XXXXXXXXXXXXXXXXXXXXXX             ",
"             ..........             XXXXXXXXXXXXXXXXXXXXXXXXXXXXXXXXXXX                        XXXXXXXXXXXXXXXXXXXX             ",
"             ............             XXXXXXXXXXXXXXXXXXXXXXXXXXXXXXXXXXX                        XXXXXXXXXXXXXXXXXX             ",
"             .............             XXXXXXXXXXXXXXXXXXXXXXXXXXXXXXXXXXXX                      XXXXXXXXXXXXXXXXXX             ",
"             ...............             XXXXXXXXXXXXXXXXXXXXXXXXXXXXXXXXXXX                     XXXXXXXXXXXXXXXXXX             ",
"             .................             XXXXXXXXXXXXXXXXXXXXXXXXXXXXXXXXXXX                   XXXXXXXXXXXXXXXXXX             ",
"             ..................              XXXXXXXXXXXXXXXXXXXXXXXXXXXXXXXXXXX                 XXXXXXXXXXXXXXXXXX             ",
"             ....................             XXXXXXXXXXXXXXXXXXXXXXXXXXXXXXXXXXXX               XXXXXXXXXXXXXXXXXX             ",
"             ......................             XXXXXXXXXXXXXXXXXXXXXXXXXXXXXXXXXXX              XXXXXXXXXXXXXXXXXX             ",
"             ........................             XXXXXXXXXXXXXXXXXXXXXXXXXXXXXXXXXXX             XXXXXXXXXXXXXXXXX             ",
"             .........................             XXXXXXXXXXXXXXXXXXXXXXXXXXXXXXXXXXXX            XXXXXXXXXXXXXXXX             ",
"             ...........................             XXXXXXXXXXXXXXXXXXXXXXXXXXXXXXXXXXXX            XXXXXXXXXXXXXX             ",
"             .............................             XXXXXXXXXXXXXXXXXXXXXXXXXXXXXXXXXXX             XXXXXXXXXXXX             ",
"             ...............................             XXXXXXXXXXXXXXXXXXXXXXXXXXXXXXXXXXX             XXXXXXXXXX             ",
"             ................................             XXXXXXXXXXXXXXXXXXXXXXXXXXXXXXXXXXXX            XXXXXXXXX             ",
"             ..................................             XXXXXXXXXXXXXXXXXXXXXXXXXXXXXXXXXXXX            XXXXXXX             ",
"             ....................................             XXXXXXXXXXXXXXXXXXXXXXXXXXXXXXXXXXX             XXXXX             ",
"               ...................................             XXXXXXXXXXXXXXXXXXXXXXXXXXXXXXXXXXXX            XXXX             ",
"                ....................................             XXXXXXXXXXXXXXXXXXXXXXXXXXXXXXXXXXXX            XXX            ",
"                  ....................................             XXXXXXXXXXXXXXXXXXXXXXXXXXXXXXXXXXXX                         ",
"                    ....................................             XXXXXXXXXXXXXXXXXXXXXXXXXXXXXXXXXXX                        ",
"                      ...................................             XXXXXXXXXXXXXXXXXXXXXXXXXXXXXXXXXXXX                      ",
"                       ....................................             XXXXXXXXXXXXXXXXXXXXXXXXXXXXXXXXXXXX                    ",
"                         ....................................             XXXXXXXXXXXXXXXXXXXXXXXXXXXXXXXXXXXX                  ",
"             ..            ...................................              XXXXXXXXXXXXXXXXXXXXXXXXXXXXXXXXXXX                 ",
"             ...             ...................................             XXXXXXXXXXXXXXXXXXXXXXXXXXXXXXXXXXXX               ",
"             .....            ....................................             XXXXXXXXXXXXXXXXXXXXXXXXXXXXXXXXXXXX             ",
"             .......            ....................................             XXXXXXXXXXXXXXXXXXXXXXXXXXXXXXXXXX             ",
"             ........             ...................................             XXXXXXXXXXXXXXXXXXXXXXXXXXXXXXXXX             ",
"             ..........            ....................................             XXXXXXXXXXXXXXXXXXXXXXXXXXXXXXX             ",
"             ............            ....................................             XXXXXXXXXXXXXXXXXXXXXXXXXXXXX             ",
"             .............             ...................................              XXXXXXXXXXXXXXXXXXXXXXXXXXX             ",
"             ...............             ...................................             XXXXXXXXXXXXXXXXXXXXXXXXXX             ",
"             .................            ....................................             XXXXXXXXXXXXXXXXXXXXXXXX             ",
"             ..................             ....................................             XXXXXXXXXXXXXXXXXXXXXX             ",
"             ..................               ...................................             XXXXXXXXXXXXXXXXXXXXX             ",
"             ..................                 ...................................             XXXXXXXXXXXXXXXXXXX             ",
"             ..................                  ....................................             XXXXXXXXXXXXXXXXX             ",
"             ..................                    ....................................             XXXXXXXXXXXXXXX             ",
"             ..................                      ...................................             XXXXXXXXXXXXXX             ",
"             ..................                        ...................................             XXXXXXXXXXXX             ",
"             ....................                       ....................................             XXXXXXXXXX             ",
"             .....................                        ...................................             XXXXXXXXX             ",
"             .......................                        ...................................             XXXXXXX             ",
"             .........................                        ...................................             XXXXX             ",
"             ...........................                       ....................................             XXX             ",
"             ............................                        ...................................             XXX            ",
"             ..............................                        ...................................                          ",
"             ................................                        ...................................                        ",
"             ..................................                       ...................................                       ",
"             ...................................                        ...................................                     ",
"              ....................................                        ...................................                   ",
"               .....................................                       ....................................                 ",
"                 .....................................                     ....................................                 ",
"                   ....................................                  .....................................                  ",
"                    .....................................              .....................................                    ",
"                      .....................................           .....................................                     ",
"                        ....................................        .....................................                       ",
"                          ....................................    .....................................                         ",
"                           ..................................... ....................................                           ",
"                             .......................................................................                            ",
"                               ...................................................................                              ",
"                                ................................................................                                ",
"                                  ............................................................                                  ",
"                                    .........................................................                                   ",
"                                      .....................................................                                     ",
"                                       ..................................................                                       ",
"                                         ..............................................                                         ",
"                                           ...........................................                                          ",
"                                             .......................................                                            ",
"                                              ....................................                                              ",
"                                                .................................                                               ",
"                                                  .............................                                                 ",
"                                                   ..........................                                                   ",
"                                                     ......................                                                     ",
"                                                       ...................                                                      ",
"                                                         ...............                                                        ",
"                                                          ............                                                          ",
"                                                            ........                                                            ",
"                                                              .....                                                             ",
"                                                               ..                                                               ",
"                                                                                                                                ",
"                                                                                                                                ",
"                                                                                                                                ",
"                                                                                                                                ",
"                                                                                                                                "
};
