/* XPM */
static char *_1474ea33a214bc3e14078c4fcaa6f88G8bnZ6iUayClHWCy[] = {
/* columns rows colors chars-per-pixel */
"16 16 33 1 ",
"  c None",
". c #5D5653",
"X c #5B5756",
"o c #57585B",
"O c #57595B",
"+ c #57585C",
"@ c #57595C",
"# c #595859",
"$ c #58585A",
"% c #675246",
"& c #695043",
"* c #685144",
"= c #695144",
"- c #645249",
"; c #665248",
": c #665249",
"> c #64534A",
", c #605450",
"< c #0C7BBF",
"1 c #0C7BC0",
"2 c #0B7CC0",
"3 c #0B7CC1",
"4 c #097DC3",
"5 c #0C7CC0",
"6 c #087DC5",
"7 c #067FC8",
"8 c #0480CB",
"9 c #0181CF",
"0 c #0281CF",
"q c #0083D4",
"w c #0083D5",
"e c #0084D7",
"r c #0084D8",
/* pixels */
"                ",
"       236      ",
"     222333     ",
"   2222  3333   ",
"   e8<2   33333 ",
" ::  r6<3   333 ",
" o$%   e333  33 ",
"  $oX&  q033    ",
"    $@,=  r8<3  ",
" $$  $$$::  e23 ",
" $$$   $@$&  0q ",
"  $$$$   $@.&   ",
"   $$$$$ $$$@   ",
"     $$$$$$     ",
"       $$$      ",
"                "
};
