/* XPM */
static char *_2bcc0a46ac2407cfac7305a4434dda8hRNGt4G08R1CElDI[] = {
/* columns rows colors chars-per-pixel */
"32 32 51 1 ",
"  c None",
". c #5A5757",
"X c #5C5654",
"o c #5D5654",
"O c #5A5758",
"+ c #57585B",
"@ c #57595B",
"# c #55595D",
"$ c #57585C",
"% c #57595C",
"& c #56595D",
"* c #595859",
"= c #58585A",
"- c #58585B",
"; c #6A4F41",
": c #6B4F41",
"> c #675045",
", c #665147",
"< c #655349",
"1 c #64534A",
"2 c #60544F",
"3 c #61544F",
"4 c #605450",
"5 c #605550",
"6 c #0D7BBE",
"7 c #0C7BBF",
"8 c #0C7CBF",
"9 c #0D7CBF",
"0 c #077EC5",
"q c #0C7BC0",
"w c #0B7CC0",
"e c #0A7CC1",
"r c #0B7CC1",
"t c #097CC3",
"y c #097DC3",
"u c #0A7CC2",
"i c #087DC4",
"p c #057FC8",
"a c #057EC9",
"s c #0380CC",
"d c #0480CC",
"f c #0181D0",
"g c #0181D1",
"h c #0182D1",
"j c #0282D1",
"k c #0083D3",
"l c #0083D7",
"z c #0084D7",
"x c #0085D8",
"c c #0087DF",
"v c #0087E1",
/* pixels */
"                                ",
"               rr               ",
"              rrrr              ",
"            rrrrrrrr            ",
"          rrrrrrrrrrrr          ",
"         rrrrrrrrrrrrrrr        ",
"       rrrrrrrrrrrrrrrrrr       ",
"     8rrrrrrrr    rrrrrrrrr     ",
"     jrqrrrrrr      rrrrrrrrr   ",
"       krqrrrrr      rrrrrrrr   ",
"   $5   jsqrqrrrr      rrrrrr   ",
"   ===>   ki8rrrrrr     rrrrr   ",
"   ===$=    xr7qrrrrr   rrrrr   ",
"   =====%5    j8rrrrrr    rrr   ",
"   ======$$<   cprrrrrrr   rr   ",
"     ======$=:   jr8rrrrrr      ",
"       =====+$o    jrrrrrrrr    ",
"   ==   ====+++=3   jdqrrrrrr   ",
"   ====   ========<   lprrrrr   ",
"   =====    ======$.<   jr7rr   ",
"   =====     ======++5    j7r   ",
"   ======      ======++5   v0   ",
"   ========      ======+=:      ",
"    =========      =====+$o     ",
"     =========    ========+     ",
"       ==================       ",
"         ==============         ",
"          ============          ",
"            ========            ",
"              ====              ",
"               ==               ",
"                                "
};
